<svg xmlns="http://www.w3.org/2000/svg" width="600" height="400" viewBox="0 0 600 400">
  <rect width="600" height="400" fill="#1a1a1a"/>
  
  <!-- Header -->
  <text x="20" y="30" font-family="Arial" font-size="18" fill="#ffffff">E-commerce UI Patterns Analysis</text>
  
  <!-- Instagram Section -->
  <rect x="20" y="50" width="130" height="30" fill="#333333" rx="5"/>
  <text x="45" y="70" font-family="Arial" font-size="14" fill="#ffffff">Instagram</text>
  
  <!-- Instagram UI thumbnails -->
  <rect x="20" y="90" width="560" height="60" fill="#333333" rx="5"/>
  <rect x="30" y="100" width="40" height="40" fill="#555555" rx="3"/>
  <rect x="80" y="100" width="40" height="40" fill="#555555" rx="3"/>
  <rect x="130" y="100" width="40" height="40" fill="#555555" rx="3"/>
  <rect x="180" y="100" width="40" height="40" fill="#555555" rx="3"/>
  <rect x="230" y="100" width="40" height="40" fill="#555555" rx="3"/>
  <rect x="280" y="100" width="40" height="40" fill="#555555" rx="3"/>
  <rect x="330" y="100" width="40" height="40" fill="#555555" rx="3"/>
  <rect x="380" y="100" width="40" height="40" fill="#555555" rx="3"/>
  <rect x="430" y="100" width="40" height="40" fill="#555555" rx="3"/>
  <rect x="480" y="100" width="40" height="40" fill="#555555" rx="3"/>
  <rect x="530" y="100" width="40" height="40" fill="#555555" rx="3"/>
  
  <!-- Aliexpress Section -->
  <rect x="20" y="160" width="130" height="30" fill="#333333" rx="5"/>
  <text x="45" y="180" font-family="Arial" font-size="14" fill="#ffffff">Aliexpress</text>
  
  <!-- Aliexpress UI thumbnails -->
  <rect x="20" y="200" width="560" height="60" fill="#333333" rx="5"/>
  <rect x="30" y="210" width="40" height="40" fill="#555555" rx="3"/>
  <rect x="80" y="210" width="40" height="40" fill="#555555" rx="3"/>
  <rect x="130" y="210" width="40" height="40" fill="#555555" rx="3"/>
  <rect x="180" y="210" width="40" height="40" fill="#555555" rx="3"/>
  <rect x="230" y="210" width="40" height="40" fill="#555555" rx="3"/>
  <rect x="280" y="210" width="40" height="40" fill="#555555" rx="3"/>
  <rect x="330" y="210" width="40" height="40" fill="#555555" rx="3"/>
  <rect x="380" y="210" width="40" height="40" fill="#555555" rx="3"/>
  <rect x="430" y="210" width="40" height="40" fill="#555555" rx="3"/>
  <rect x="480" y="210" width="40" height="40" fill="#555555" rx="3"/>
  <rect x="530" y="210" width="40" height="40" fill="#555555" rx="3"/>
  
  <!-- Shein Section -->
  <rect x="20" y="270" width="130" height="30" fill="#333333" rx="5"/>
  <text x="55" y="290" font-family="Arial" font-size="14" fill="#ffffff">Shein</text>
  
  <!-- Shein UI thumbnails -->
  <rect x="20" y="310" width="560" height="60" fill="#333333" rx="5"/>
  <rect x="30" y="320" width="40" height="40" fill="#555555" rx="3"/>
  <rect x="80" y="320" width="40" height="40" fill="#555555" rx="3"/>
  <rect x="130" y="320" width="40" height="40" fill="#555555" rx="3"/>
  <rect x="180" y="320" width="40" height="40" fill="#555555" rx="3"/>
  <rect x="230" y="320" width="40" height="40" fill="#555555" rx="3"/>
  <rect x="280" y="320" width="40" height="40" fill="#555555" rx="3"/>
  <rect x="330" y="320" width="40" height="40" fill="#555555" rx="3"/>
  <rect x="380" y="320" width="40" height="40" fill="#555555" rx="3"/>
  <rect x="430" y="320" width="40" height="40" fill="#555555" rx="3"/>
  <rect x="480" y="320" width="40" height="40" fill="#555555" rx="3"/>
  <rect x="530" y="320" width="40" height="40" fill="#555555" rx="3"/>
</svg> 